<svg transform="scale(1)" version="1.1" id="Layer_1" xmlns="http://www.w3.org/2000/svg" xmlns:xlink="http://www.w3.org/1999/xlink" x="0px" y="0px" viewBox="0 0 500 500" xml:space="preserve" class="show_show__wrapper__graphic__5Waiy "><title>React</title><style type="text/css">
	.st0{fill:#D1D3D4;}
	.st1{fill:#FFFFFF;}
	.st2{fill:#231F20;}
	.st3{fill:#009472;}
</style><path class="st0" id="Floor" d="M417.8,355.5H82.2c-0.4,0-0.7-0.3-0.7-0.7c0-0.4,0.3-0.7,0.7-0.7h335.7c0.4,0,0.7,0.3,0.7,0.7
	C418.5,355.2,418.2,355.5,417.8,355.5z"></path><g id="Chair"><path class="st1" d="M133.4,177.7c-24.4,17.8-27.6,54.8-28.3,82.6c-0.6,26.2,5.2,51.1,10.7,76.6c5.3,25,25.6,38.6,49.8,44.2
		c35.9,8.3,75.2,9.3,111.7,5.3s37.5-40,33.8-69.4c-1-8.1-6.7-13.2-12.9-17.6c-7.6-5.4-14.4-11.2-19.8-19
		c-17.3-25.2-18.3-54.9-29.8-82.2c-9.1-21.6-29.5-36.6-53-35.9S149.6,165.9,133.4,177.7z"></path><path class="st2" d="M235.7,389.4c-23.7,0.1-47.3-2.4-70.4-7.6c-35.4-8.2-46.9-28.9-50.3-44.7l-1.2-5.4c-5.2-24.2-10.1-47-9.5-71.4
		c0.3-12.9,1.2-29.8,5.2-45.2c4.6-17.4,12.2-29.9,23.3-37.9l0,0c17.1-12.5,41.2-14.9,62.5-15.6c22.9-0.8,44,13.5,53.6,36.3
		c4.5,10.7,7.5,21.9,10.3,32.7c4.4,16.8,9,34.1,19.5,49.3c4.6,6.8,10.5,12.4,19.6,18.9c6.2,4.5,12.2,9.7,13.2,18.1
		c3.4,26.9,0.6,45.5-8.4,57c-5.9,7.5-14.7,12-26,13.2C263.4,388.6,249.6,389.4,235.7,389.4z M133.8,178.2
		c-23.5,17.1-27.3,52.8-28,82.1c-0.6,24.2,4.3,47,9.5,71.1l1.2,5.4c3.3,15.5,14.5,35.6,49.2,43.6c33.6,7.8,72.1,9.6,111.4,5.2
		c10.9-1.2,19.3-5.5,25-12.7c8.8-11.1,11.4-29.4,8.1-55.9c-1-7.9-6.6-12.9-12.6-17.1c-9.2-6.6-15.2-12.3-19.9-19.2
		c-10.6-15.5-15.2-32.9-19.7-49.8c-2.8-10.8-5.8-21.9-10.3-32.5c-9.4-22.2-29.9-36.2-52.3-35.4C174.4,163.7,150.6,166,133.8,178.2
		L133.8,178.2z"></path><path class="st0" d="M197.4,315.7c-4.3,0-8.7-0.3-13-0.7l0,0c-8.3-0.9-16.5-2.7-24.4-5.3c-10.8-3.5-18.1-7.5-23.6-13
		c-8.3-8.3-11.5-19.5-12.7-27.4c-2.8-18.4,0.1-38.6,2-49.1c2.6-14.5,11.6-27.1,24.4-34.3c8.8-5.1,19.2-8.4,32-10.1
		c13.4-1.8,23-0.3,30.3,4.5c11.9,7.9,15.3,23,17.7,37.8l4.2,25.2c1,6.3,2.4,14.9,7.4,18.9c1.7,1.3,3.6,2.4,5.6,3.4
		c3.4,1.7,7,3.5,9,7.4c2.5,4.8,3.5,13,1,18.3c-2.8,5.9-8.5,9.8-12.6,12.2C231.1,311.5,214.9,315.7,197.4,315.7z M184.6,313.5
		c22.2,2.5,42.7-1.4,59.4-11.3c3.9-2.3,9.4-6,12-11.6c2.3-4.9,1.3-12.6-1-17.1c-1.8-3.5-5-5.1-8.3-6.8c-2.1-1-4-2.2-5.9-3.5
		c-5.4-4.4-6.8-13.3-7.9-19.8l-4.2-25.2c-2.4-14.5-5.7-29.3-17.1-36.9c-7-4.6-16.3-6-29.3-4.3c-12.6,1.6-22.9,4.9-31.5,9.9
		c-12.4,7.1-21.1,19.3-23.7,33.4c-1.9,10.4-4.8,30.5-2,48.6c1.2,7.7,4.2,18.6,12.3,26.6c5.3,5.3,12.4,9.2,23,12.6
		C168.2,310.8,176.3,312.6,184.6,313.5L184.6,313.5z"></path><path class="st0" d="M137.2,290.1c-0.4,0-0.7-0.3-0.7-0.7c0-0.3,0.2-0.5,0.4-0.6c10.5-4.3,17.4-3.3,17.7-3.3
		c0.4,0.1,0.6,0.4,0.6,0.8c-0.1,0.4-0.4,0.6-0.8,0.6c-0.1,0-6.9-1-17,3.2C137.4,290.1,137.3,290.1,137.2,290.1z"></path></g><g id="Characer"><polygon class="st1" points="276.5,189.4 277.4,237.1 259.6,247.2 264.1,191.2 	"></polygon><path class="st2" d="M259.6,247.9c-0.1,0-0.3,0-0.4-0.1c-0.2-0.1-0.3-0.4-0.3-0.6l4.5-56c0-0.3,0.3-0.6,0.6-0.6l12.4-1.8
		c0.2,0,0.4,0,0.5,0.2c0.2,0.1,0.2,0.3,0.2,0.5l0.9,47.8c0,0.3-0.1,0.5-0.4,0.6L260,247.8C259.9,247.9,259.8,247.9,259.6,247.9z
		 M264.8,191.8l-4.3,54.2l16.3-9.2l-0.9-46.6L264.8,191.8z"></path><path class="st1" d="M269,352.3c0,0-3.7,42-2.2,44.7s37.5,8.2,38.2,4.3s-17.6-11.4-17.6-11.4l4-34.3"></path><path class="st2" d="M299.5,403.3c-10.1,0-31.8-3.3-33.3-6s1.5-38,2.1-45.1c0-0.4,0.4-0.7,0.8-0.6c0.4,0,0.7,0.4,0.6,0.7
		c0,0,0,0,0,0c-1.4,16.1-3.3,42.3-2.2,44.3c1.3,1.7,24.3,5.9,34,5.2c2.6-0.2,2.9-0.7,2.9-0.7c0.3-2-8.7-7.1-17.2-10.6
		c-0.3-0.1-0.5-0.4-0.4-0.7l4-34.3c0-0.4,0.4-0.7,0.8-0.6c0,0,0,0,0,0c0.4,0,0.7,0.4,0.6,0.8c0,0,0,0,0,0l-4,33.8
		c4.9,2,18.2,8,17.6,11.9c-0.2,1.1-1.6,1.5-2.6,1.6C301.8,403.2,300.6,403.3,299.5,403.3z"></path><path class="st1" d="M215.7,363.3c0,0-5,37.1-2.4,38.1s38.2,2.8,37.6-0.4s-18.1-9.1-18.1-9.1l6.4-36.2"></path><path class="st2" d="M236.9,403.5c-10.2,0-22.4-0.8-23.9-1.5c-2.7-1.1,0.1-24.8,2-38.9c0.1-0.4,0.4-0.7,0.8-0.6c0,0,0,0,0,0
		c0.4,0.1,0.6,0.4,0.6,0.8c-2.4,17.2-4,35.9-2.8,37.5c3,1.2,34,2.1,36.5,0.2c-0.7-1.8-9.6-5.7-17.6-8.4c-0.3-0.1-0.5-0.5-0.5-0.8
		l6.4-36.2c0.1-0.4,0.4-0.6,0.8-0.6s0.6,0.4,0.6,0.8l-6.2,35.6c4.8,1.6,17.4,6.3,18,9.4c0.1,0.4-0.1,0.9-0.5,1.1
		C249.8,403.1,243.8,403.5,236.9,403.5z"></path><path class="st2" d="M254.9,288.9c0.9,3,8.4,80.9,8.4,80.9h30.6c0,0,14.1-78.3,9.5-97.6c-3.2-13.3-17.6-19.8-32.3-15.5
		c-21.9-0.9-44.4-3.6-44.4-3.6L254.9,288.9z"></path><path class="st2" d="M293.9,370.5h-30.6c-0.4,0-0.7-0.3-0.7-0.6c-2.6-26.6-7.6-77.1-8.4-80.7l-28.1-35.7c-0.2-0.2-0.2-0.5-0.1-0.8
		c0.1-0.3,0.4-0.4,0.7-0.4c0.2,0,22.6,2.8,44.2,3.6c8-2.3,16.3-1.5,22.7,2.2c5.2,3,9,8,10.4,13.9c4.6,19.2-8.9,94.7-9.5,97.9
		C294.5,370.3,294.2,370.5,293.9,370.5z M263.9,369.1h29.4c1.3-7.2,13.7-78.6,9.4-96.7c-1.3-5.5-4.8-10.2-9.7-13
		c-6.1-3.5-14-4.3-21.7-2c-0.1,0-0.2,0-0.2,0c-18.2-0.7-37.1-2.8-42.8-3.4l27.2,34.5c0.1,0.1,0.1,0.2,0.1,0.2
		C256.4,291.6,263.2,361.2,263.9,369.1z"></path><path class="st2" d="M172.3,257.3c0,0-21.4,22.7-6.6,40.7s57.2-0.9,57.2-0.9l-10.6,70.4l31.1-0.3c0,0,32.4-95.9,28.6-105.8
		s-30.2-14.5-30.2-14.5L172.3,257.3z"></path><path class="st2" d="M212.4,368.2c-0.2,0-0.4-0.1-0.5-0.2c-0.1-0.2-0.2-0.4-0.2-0.6l10.4-69.2c-7.1,2.9-14.5,5.2-22,6.8
		c-16.6,3.3-28.6,1-34.9-6.5c-15.1-18.3,6.4-41.4,6.6-41.6c0.1-0.1,0.3-0.2,0.4-0.2l69.5-10.4h0.2c1.1,0.2,27,4.8,30.8,14.9
		c3.8,10.2-27.4,102.3-28.7,106.2c-0.1,0.3-0.4,0.5-0.7,0.5L212.4,368.2L212.4,368.2z M223,296.4c0.2,0,0.3,0.1,0.4,0.1
		c0.2,0.2,0.3,0.4,0.3,0.7l-10.4,69.6l29.7-0.3c11.2-33.2,31.3-97.2,28.5-104.8c-3.4-9.1-27.8-13.7-29.6-14L172.6,258
		c-1.9,2.1-20,23.1-6.4,39.6c14.4,17.4,56-0.9,56.4-1.1C222.8,296.4,222.9,296.4,223,296.4z"></path><path class="st3" d="M278.5,191.4c-1.7-18.5-8.1-22.3-8.1-22.3c-5.2-19.2-30.4-15-30.4-15s-34.1,4.4-46.4,25.3
		c-8.2,13.9-1.2,32.6-4.8,51.1c-1.8,9.4-19.4,27-19.4,27l87.3-7c0,0,8.2-33.2,11.8-58.3L278.5,191.4z"></path><path class="st1" d="M260.5,176.1c-2.9-2-5.7-4-9.4-4.7c-5.5-1-11.1-0.2-16.7-1.4c-6-1.3-11.8-4.1-17.4-6.4
		c-1.6-0.7-0.9,2.2-1.9,0.7c-3.5-5.2-0.7-12,1.2-17.1c4.4-11.9,10-23.5,17.5-33.8c3.9-5.4,18.6-24.8,24.8-11.8
		c-1.4-2.9,11.1-4,12.7-3.9c15.2,1.2,23.2,18,21.6,31.7c-1.1,10-4.3,19.1-3.1,29.3c0.5,4.5,1.6,9.1,0.2,13.5
		c-1.7,5.2-6.9,8.7-12.3,9.4s-10.9-1.2-15.5-4.2C261.8,176.9,261.1,176.5,260.5,176.1z"></path><path class="st2" d="M275.6,182.3c-4.9-0.2-9.6-1.7-13.6-4.4c-0.6-0.4-1.2-0.8-1.8-1.2l-0.4-0.3c-2.8-1.9-5.4-3.6-8.7-4.3
		c-2.6-0.4-5.2-0.6-7.8-0.6c-3,0-6-0.3-9-0.8c-5.1-1.3-10.1-3.1-14.9-5.3l-2.7-1.1c-0.1-0.1-0.2-0.1-0.2-0.1s0,0.2-0.1,0.3
		c-0.1,0.3-0.2,0.8-0.8,0.9s-0.9-0.4-1.1-0.7c-3.5-5.3-1.1-11.9,0.9-17.1l0.2-0.6c5-13.5,10.8-24.6,17.6-33.9
		c5.7-7.8,13.9-17.1,20.2-16.5c2.1,0.2,4,1.5,5,3.3c2.5-2.3,11.9-2.9,13-2.8c6.1,0.5,11.6,3.5,15.4,8.3c5.4,6.8,7.8,15.5,6.9,24.1
		c-0.4,3.2-1,6.4-1.5,9.5c-1.2,6.6-2.4,12.8-1.6,19.6c0.1,0.8,0.2,1.6,0.3,2.5c0.5,3.8,1.1,7.6-0.1,11.3c-1.7,5.2-6.9,9.1-12.9,9.8
		C277.2,182.3,276.4,182.3,275.6,182.3z M216.6,162.8c0.3,0,0.5,0.1,0.7,0.2l2.7,1.1c4.7,2.2,9.6,3.9,14.6,5.2
		c2.9,0.5,5.8,0.8,8.7,0.8c2.7,0,5.3,0.2,7.9,0.6c3.7,0.7,6.5,2.6,9.3,4.5l0.4,0.3l0,0c0.6,0.4,1.2,0.8,1.8,1.2
		c3.5,2.2,9,4.8,15,4.1c5.5-0.7,10.2-4.2,11.8-8.9c1.1-3.4,0.6-7.1,0.1-10.7c-0.1-0.8-0.2-1.7-0.3-2.5c-0.8-7,0.4-13.6,1.6-20
		c0.6-3.1,1.2-6.2,1.5-9.4c0.9-8.3-1.5-16.5-6.6-23.1c-3.5-4.5-8.7-7.3-14.4-7.8c-1.7-0.2-10.8,0.8-12,2.6c-0.1,0.1-0.1,0.2,0,0.3
		l0,0c0.1,0.4,0,0.8-0.4,0.9c-0.3,0.1-0.7,0-0.9-0.3l0,0c-1.2-2.5-2.7-3.8-4.7-4c-4.5-0.4-11.2,5.2-19,15.9
		C227.7,123,222,134,217,147.4l-0.2,0.6c-1.8,4.8-4,10.8-1.3,15.4C215.7,163,216.1,162.8,216.6,162.8L216.6,162.8z"></path><path class="st1" d="M286,132.3c0,0-0.6,15.8-7.2,25.4c-3.6,5.5-10.1,8.4-16.7,7.3l-7.5,18.6c0,0-3.7,9.6-14.8,3.4
		c-6.5-3.6-10.7-10.4-11-17.8l12.4-34.7c0,0,16.3-2.3,20.1-15C261.3,119.3,273.9,133.2,286,132.3z"></path><path class="st2" d="M246.7,189.7c-2.5-0.1-5-0.8-7.2-2.2c-11.3-6.3-11.4-18.3-11.4-18.4c0-0.1,0-0.2,0-0.2l12.4-34.7
		c0.1-0.2,0.3-0.4,0.6-0.5c0.2,0,15.9-2.4,19.5-14.5c0.1-0.4,0.5-0.6,0.9-0.5c0.1,0,0.2,0.1,0.3,0.2c0.1,0.1,12.6,13.6,24.1,12.8
		c0.2,0,0.4,0.1,0.5,0.2c0.1,0.1,0.2,0.3,0.2,0.5c0,0.6-0.7,16.1-7.4,25.7c-3.7,5.5-10.2,8.5-16.8,7.6l-7.3,18.1
		c-1.1,2.5-3.1,4.4-5.5,5.4C248.7,189.5,247.7,189.7,246.7,189.7z M229.5,169.2c0.4,7.1,4.4,13.6,10.7,17.1c3.5,1.9,6.6,2.4,9.1,1.5
		c2.1-0.9,3.8-2.5,4.7-4.6l7.5-18.6c0.1-0.3,0.5-0.5,0.8-0.4c6.2,1.1,12.5-1.7,15.9-7c5.6-8.1,6.8-21,7.1-24.2
		c-10.4,0.3-20.7-9.4-23.7-12.4c-4.1,11.1-17.2,13.9-19.8,14.3L229.5,169.2z"></path><path class="st1" d="M248.6,134.6c0,0-0.6-15.2-10.3-9.7s-3.9,18.3,2.2,19.8"></path><path class="st2" d="M240.5,145.4h-0.2c-3.7-1-7.1-5.5-7.8-10.3c-0.7-4.4,1.5-8.8,5.5-10.8c2.6-1.5,4.9-1.7,6.7-0.7
		c4.3,2.4,4.6,10.6,4.6,10.9c0,0.4-0.3,0.7-0.7,0.7s-0.7-0.3-0.7-0.7l0,0c0-0.1-0.3-7.8-3.9-9.8c-1.4-0.8-3.2-0.6-5.4,0.7
		c-3.5,1.8-5.4,5.6-4.8,9.4c0.6,4.2,3.6,8.3,6.7,9.1c0.4,0.1,0.6,0.5,0.5,0.8C241.1,145.2,240.8,145.4,240.5,145.4L240.5,145.4z"></path><path class="st2" d="M271.6,154.9c-2.7,0-5.9-2.4-6-2.5c-0.3-0.2-0.4-0.6-0.2-1c0.2-0.3,0.6-0.4,1-0.2c0,0,0.1,0,0.1,0.1
		c0.9,0.7,3.7,2.4,5.5,2.2c0.8-0.5,0.1-6-1.5-11.7c-0.1-0.4,0.1-0.8,0.5-0.9c0.4-0.1,0.7,0.1,0.8,0.5c0.5,1.8,2.8,10.7,1.3,12.8
		c-0.2,0.4-0.6,0.6-1,0.6L271.6,154.9z"></path><path class="st2" d="M267.3,159.3c-2.8,0-5.6-0.8-7.9-2.4c-2.9-2-4.9-5.1-5.7-8.5c0-0.4,0.3-0.7,0.7-0.7c0,0,0,0,0,0
		c0.4,0,0.7,0.3,0.7,0.7c0.8,3,2.7,5.7,5.3,7.5c3.4,2.3,7.7,2.7,12.7,1.1c0.4-0.1,0.8,0,0.9,0.4c0.1,0.4,0,0.8-0.4,0.9
		c0,0-0.1,0-0.1,0C271.5,158.9,269.4,159.2,267.3,159.3z"></path><path class="st2" d="M262.1,165c0,0-10.4-2.7-15.6-6.5c0,0,0.3,17.2,9.8,20.9L262.1,165z"></path><path class="st2" d="M256.4,180c-0.1,0-0.2,0-0.2-0.1c-9.8-3.8-10.3-20.8-10.3-21.5c0-0.4,0.3-0.7,0.7-0.7c0.2,0,0.3,0,0.4,0.1
		c5,3.6,15.2,6.4,15.3,6.4c0.4,0.1,0.6,0.5,0.5,0.8c0,0,0,0.1,0,0.1l-5.7,14.4C256.9,179.8,256.6,180,256.4,180z M247.4,159.8
		c0.3,4,1.8,15.3,8.7,18.6l5.2-13C258.9,164.8,251.9,162.7,247.4,159.8L247.4,159.8z"></path><ellipse class="st2" transform="matrix(0.3218 -0.9468 0.9468 0.3218 50.2242 344.168)" cx="265.3" cy="137" rx="2.8" ry="1.6"></ellipse><ellipse class="st2" transform="matrix(0.3218 -0.9468 0.9468 0.3218 55.1116 360.3367)" cx="279.1" cy="141.7" rx="2.8" ry="1.6"></ellipse><path class="st1" d="M254.3,240.7c-0.3,0.6-9.1,13.8,7.5,12.7s32.3-39.2,36.7-43.1s14.1-18.4,14.5-21.9s-10.9,3.4-10.9,3.4
		S261,229.1,254.3,240.7z"></path><path class="st2" d="M260.1,254.1c-4.2,0-7-1.1-8.3-3.2c-2-3.3,0.3-8,1.9-10.5l0.7,0.2l-0.6-0.4c6.7-11.6,46.3-47.6,48-49.1
		c2.9-1.8,9.5-5.5,11.5-4.3c0.5,0.3,0.7,0.9,0.6,1.5c-0.4,3.7-10,18.3-14.7,22.3c-1.1,1-3.3,4.8-5.8,9.2c-7,12.4-18.9,33.2-31.3,34
		C261.3,254.1,260.7,254.1,260.1,254.1z M312,188.1c-1.3,0-5.4,1.8-9.5,4.3c-0.3,0.3-41,37.3-47.6,48.7l0,0l-0.1,0.1
		c-1.1,1.8-3.5,6.3-1.9,9.1c1.1,1.9,4.1,2.8,8.8,2.4c11.7-0.8,23.3-21.1,30.2-33.3c2.8-4.9,4.8-8.5,6.1-9.6
		c4.3-3.7,13.9-18.1,14.2-21.4c0-0.1,0-0.1,0-0.2C312.3,188.1,312.1,188.1,312,188.1L312,188.1z"></path><polygon class="st2" points="298,162.1 318.3,160.6 309.1,204 287.2,206.6 	"></polygon><path class="st2" d="M287.2,207.3c-0.2,0-0.4-0.1-0.5-0.2c-0.2-0.2-0.2-0.4-0.1-0.6l10.8-44.5c0.1-0.3,0.3-0.5,0.6-0.5l20.3-1.4
		c0.4,0,0.7,0.3,0.7,0.6c0,0.1,0,0.1,0,0.2l-9.3,43.3c-0.1,0.3-0.3,0.5-0.6,0.6L287.2,207.3L287.2,207.3z M298.6,162.7l-10.4,43.1
		l20.3-2.4l9-41.9L298.6,162.7z"></path><path class="st1" d="M305.1,188.9c-0.9,2.5-1.4,5.1-1.7,7.8c-0.1,0.6-0.1,1.3,0.2,1.9c0.3,0.5,0.7,0.8,1.1,1.1
		c2.2,1.2,4.6,1.7,7.1,1.5c1.3,0.1,2.5-0.3,3.6-0.9c0.9-0.7,1.5-1.7,1.8-2.7c0.9-2.8,1.2-5.8,0.7-8.7c-0.2-1.5-0.6-2.9-1.2-4.2
		c-0.2-0.5-2.2-3.2-2.1-3.6l-1.1,4.2C310.2,184.7,306.3,185.4,305.1,188.9z"></path><path class="st2" d="M311.2,201.8c-2.4,0.1-4.8-0.5-6.9-1.6c-0.6-0.3-1.1-0.8-1.4-1.4c-0.3-0.7-0.4-1.5-0.2-2.3
		c0.3-2.7,0.9-5.4,1.8-7.9c1.3-3.6,5.2-4.6,8.4-4.3l1-3.6l0,0c0.1-0.4,0.5-0.6,0.9-0.5c0.3,0.1,0.5,0.3,0.5,0.6
		c0.1,0.3,0.8,1.3,1.2,1.9c0.3,0.5,0.6,1,0.9,1.5c0.6,1.4,1,2.9,1.2,4.4c0.5,3,0.2,6.1-0.8,9c-0.4,1.2-1.1,2.2-2,3.1
		c-1.2,0.8-2.6,1.1-4,1.1L311.2,201.8z M311.6,185.7c-2.5,0-5,0.9-5.9,3.4l0,0c-0.9,2.5-1.4,5-1.7,7.6c-0.1,0.5-0.1,1,0.1,1.5
		c0.2,0.4,0.5,0.6,0.9,0.8c2,1.1,4.4,1.6,6.7,1.4c1.1,0.1,2.2-0.2,3.2-0.8c0.7-0.6,1.3-1.5,1.5-2.4c0.9-2.7,1.1-5.6,0.7-8.4
		c-0.2-1.4-0.6-2.8-1.1-4.1c-0.1-0.1-0.5-0.8-0.8-1.2c-0.2-0.3-0.4-0.5-0.5-0.8l-0.7,2.5c-0.1,0.3-0.4,0.6-0.8,0.5
		C312.8,185.8,312.2,185.7,311.6,185.7z M305.1,188.9L305.1,188.9z"></path><path class="st1" d="M196.6,210c0,0,20.9,52.8,31.1,51.6s46.1-35.6,55-44s23.6-20.5,26.4-26.4s-0.9-10.8-3.5-10.2
		s-13.2,4.5-13.2,4.5s3.2-8.3,1.9-8.7s-7.5,4.2-9,17l-49,33.9l-11.9-32.3"></path><path class="st2" d="M227.5,262.4c-10.5,0-29.4-46.7-31.5-52.1c-0.1-0.4,0-0.8,0.4-0.9c0.4-0.1,0.8,0,0.9,0.4l0,0
		c5.7,14.4,22.1,51.3,30.1,51.3h0.3c6.4-0.7,24.4-15.1,53.6-42.9l1-1c2.4-2.2,5-4.7,7.9-7.2c7.7-6.9,16.3-14.7,18.3-18.9
		c1.6-3.5,0.8-6.5-0.4-8c-0.5-0.8-1.4-1.3-2.3-1.2c-2.5,0.6-13,4.4-13.1,4.4c-0.3,0.1-0.6,0-0.7-0.2c-0.2-0.2-0.2-0.5-0.1-0.7
		c1.2-3,2.3-6.7,2.2-7.7c-1.3,0.4-6.6,4.8-8,16.4c0,0.2-0.1,0.4-0.3,0.5l-49,33.9c-0.3,0.2-0.8,0.1-1-0.2c0,0-0.1-0.1-0.1-0.1
		l-12-32.3c-0.1-0.4,0.1-0.8,0.4-0.9c0.4-0.1,0.8,0.1,0.9,0.4l11.6,31.4l48-33.3c1.2-9.2,4.9-14.7,7.7-16.6c0.6-0.5,1.4-0.7,2.1-0.6
		c0.3,0.1,0.5,0.3,0.7,0.6c0.6,1.2-0.6,5.1-1.5,7.6c3-1.1,9.8-3.5,11.9-4c1.5-0.2,2.9,0.5,3.7,1.7c1.5,1.9,2.5,5.4,0.6,9.5
		c-2.1,4.5-10.5,12.1-18.6,19.4c-2.9,2.6-5.5,5-7.9,7.2l-1,0.9c-11,10.4-44.3,42.2-54.4,43.3L227.5,262.4z"></path><path class="st1" d="M261.2,313.2c-0.1,0-0.2,0-0.3,0c-0.4-0.1-0.5-0.6-0.4-0.9c0,0,0,0,0,0c0.2-0.4,16.9-43.2,12-53.1
		c-0.3-0.8-1-1.4-1.8-1.7c-0.4-0.1-0.6-0.5-0.5-0.9s0.5-0.6,0.9-0.5c1.2,0.4,2.2,1.3,2.7,2.4c5.1,10.5-11.3,52.5-12,54.3
		C261.8,313,261.5,313.2,261.2,313.2z"></path><path class="st2" d="M267.6,202.6h-0.1c-0.4-0.1-0.6-0.4-0.6-0.8c0,0,0,0,0,0c1.1-6.1,1.2-12.3,0.4-18.5c-0.1-0.4,0.2-0.7,0.5-0.8
		c0,0,0,0,0,0c0.4-0.1,0.7,0.2,0.8,0.6c0,0,0,0,0,0c0.9,6.3,0.7,12.7-0.4,19C268.3,202.4,268,202.6,267.6,202.6z"></path><path class="st1" d="M219.1,140.4c-4.8,10.8-13.2,30.8,6.2,32.2c4.1,0.3,8.1-1,11.2-3.6c5.6-4.8-0.3-16.8-3.1-22.3"></path><path class="st2" d="M226.4,173.4c-0.4,0-0.8,0-1.2-0.1c-5.4-0.4-9.2-2.3-11.2-5.6c-4.5-7.6,1.3-20.6,4.4-27.6
		c0.2-0.3,0.6-0.5,0.9-0.4c0,0,0,0,0,0c0.3,0.2,0.5,0.6,0.4,0.9c-2.8,6.3-8.6,19.4-4.5,26.3c1.7,2.9,5.1,4.6,10.1,4.9
		c3.9,0.3,7.7-1,10.7-3.5c5.4-4.6-1.1-17.3-3.3-21.5c-0.2-0.3-0.1-0.8,0.2-1c0,0,0,0,0.1,0c0.3-0.2,0.8,0,0.9,0.3
		c4,7.7,8.6,18.4,2.9,23.2C234,172,230.2,173.3,226.4,173.4z"></path><path class="st1" d="M223,297.8c-0.4,0-0.7-0.3-0.7-0.7c0-0.2,0.1-0.5,0.3-0.6c0.1-0.1,9.8-5.9,12.3-9.8c0.2-0.3,0.7-0.4,1-0.2
		c0,0,0,0,0,0c0.3,0.2,0.4,0.6,0.2,0.9c0,0,0,0,0,0.1c-2.7,4.1-12.3,10-12.8,10.3C223.3,297.7,223.1,297.8,223,297.8z"></path></g><g id="Bubble"><path class="st1" d="M332,151.3c-7-5.4-11.3-12.5-11.3-20.2c0-17.2,21.2-31.2,47.4-31.2s47.4,14,47.4,31.2s-21.2,31.1-47.4,31.1
		c-10.1,0.1-20.1-2.1-29.1-6.6l-15,3.8L332,151.3z"></path><path class="st2" d="M368.1,162.9c-10.1,0.1-20.1-2.1-29.2-6.5l-14.7,3.8c-0.4,0.1-0.8-0.1-0.9-0.5c-0.1-0.2,0-0.5,0.2-0.7l7.5-7.7
		c-7.1-5.7-11-12.9-11-20.2c0-17.6,21.6-31.8,48.1-31.8s48.1,14.3,48.1,31.8S394.6,162.9,368.1,162.9z M339,155c0.1,0,0.2,0,0.3,0.1
		c9,4.4,18.8,6.6,28.8,6.5c25.8,0,46.7-13.7,46.7-30.4s-21-30.4-46.7-30.4s-46.7,13.6-46.7,30.4c0,7.2,3.9,14.1,11,19.6
		c0.2,0.1,0.3,0.3,0.3,0.5c0,0.2-0.1,0.4-0.2,0.5l-6.3,6.5l12.6-3.2C338.9,155,338.9,155,339,155z"></path><circle class="st2" cx="385.7" cy="129.6" r="4.5"></circle><path class="st2" d="M385.7,134.8c-2.8,0-5.1-2.3-5.1-5.1c0-2.8,2.3-5.2,5.1-5.2c2.8,0,5.1,2.3,5.1,5.1v0
		C390.9,132.5,388.6,134.8,385.7,134.8z M385.7,125.9c-2.1,0-3.8,1.7-3.8,3.8c0,2.1,1.7,3.7,3.8,3.7s3.8-1.7,3.7-3.8c0,0,0,0,0,0
		C389.5,127.6,387.8,125.9,385.7,125.9z"></path><circle class="st2" cx="368.1" cy="129.6" r="4.5"></circle><path class="st2" d="M368.1,134.8c-2.8,0-5.2-2.3-5.2-5.1c0-2.8,2.3-5.2,5.1-5.2c2.8,0,5.2,2.3,5.2,5.1c0,0,0,0,0,0
		C373.3,132.5,371,134.8,368.1,134.8z M368.1,125.9c-2.1,0-3.8,1.7-3.8,3.7s1.7,3.8,3.7,3.8c2.1,0,3.8-1.7,3.8-3.7c0,0,0,0,0,0
		C371.9,127.6,370.2,125.9,368.1,125.9z"></path><circle class="st2" cx="350.5" cy="129.6" r="4.5"></circle><path class="st2" d="M350.5,134.8c-2.8,0-5.2-2.3-5.2-5.1c0-2.8,2.3-5.2,5.1-5.2c2.8,0,5.2,2.3,5.2,5.1c0,0,0,0,0,0
		C355.7,132.5,353.4,134.8,350.5,134.8z M350.5,125.9c-2.1,0-3.8,1.7-3.8,3.7s1.7,3.8,3.7,3.8c2.1,0,3.8-1.7,3.8-3.7c0,0,0,0,0,0
		C354.3,127.6,352.6,125.9,350.5,125.9z"></path></g><g id="Plant"><path class="st0" d="M366.3,293.5c-0.2-2.5,0.4-5.1,1.6-7.3c1-1.6,2.5-2.9,3.3-4.7c1.4-3,0.4-6.5,0.8-9.8c0.3-2.7,1.5-5.3,3.4-7.3
		c1.7-1.7,3.9-2.9,5.6-4.7c2.7-3,3.5-7.1,5-10.8c2.2-5.2,5.9-9.6,10.7-12.6c-2.9,5.9,3.8,13.4,0.7,19.2c-1,1.9-2.8,3.2-3.5,5.2
		c-1.7,4.7,4,9.9,2.1,14.6c-0.9,2.3-3.4,3.7-4.6,5.9c-1.6,3-0.3,6.6-0.5,10c-0.2,4.7-3,8.9-6.4,12.1c-2.1,2-4.4,3.8-6.7,5.6
		c-2.7,2.2-3.9,4.5-6.3,1C368.2,305,366.4,299.4,366.3,293.5z"></path><path class="st0" d="M363.2,296.2c0.9-3.6,1.5-7.5,0-11c-1.7-3.9-5.8-6.6-6.3-10.8c-0.3-2.7,1.1-5.5,0.5-8.2s-2.8-4.5-4.6-6.5
		c-4.2-4.6-6.7-10.5-7.1-16.7c-2.6,3.5-5.3,7-6.7,11.1c-1.4,4.1-1.5,8.9,1,12.5c0.7,0.8,1.3,1.8,1.7,2.8c0.8,2.7-1.5,5.1-2.6,7.7
		c-1.4,2.9-1.1,6.4,0.8,9.1c2.4,3,7,4.1,8.2,7.8c0.3,1.4,0.4,2.7,0.4,4.1c0.5,4.9,4,9,8.7,10.4c2.8,0.7,2.8-0.4,3.3-2.8
		C361.2,302.5,362.5,299.4,363.2,296.2z"></path><path class="st0" d="M372.2,270.2c2-7,2.8-14.2,4.9-21.1c1.8-5.4,4-10.7,6.6-15.7l-8.6,3.6c-2.8,1.2-5.8,2.5-7,5.2
		c-2.3,4.7,1.8,10.7-0.6,15.4c-0.8,1.6-2.4,2.8-3.4,4.3c-2.5,3.6-2.1,8.5-0.8,12.6c0.6,1.8,3.2,11,5.5,8.4c0.9-1,1-4.8,1.4-6.2
		C370.9,274.5,371.6,272.4,372.2,270.2z"></path><path class="st0" d="M367.5,362.5c1.7-11.4,7.1-51.4,7.1-51.8l-1.5-0.2c-0.1,0.4-5.4,40.4-7.1,51.8L367.5,362.5z"></path><path class="st0" d="M365.5,373.2h1.5c-0.1-13.5-5.7-65-9-68.5l-1.1,1C359.1,308,365.4,354.8,365.5,373.2z"></path><path class="st0" d="M362.6,370.6l1.5-0.1c-1.3-29.1,4.9-90.1,4.9-90.7l-1.5-0.1C367.5,280.3,361.3,341.5,362.6,370.6z"></path><path class="st1" d="M382.3,335.1h-32.1l2.2,32.5c0.4,5.6,5.1,10,10.7,10h6.2c5.6,0,10.3-4.4,10.7-10L382.3,335.1z"></path><path class="st0" d="M369.3,378.3h-6.2c-6,0-11-4.7-11.4-10.6l-2.2-32.5c0-0.2,0-0.4,0.2-0.5c0.1-0.1,0.3-0.2,0.5-0.2h32.1
		c0.2,0,0.4,0.1,0.5,0.2c0.1,0.1,0.2,0.3,0.2,0.5l-2.2,32.5C380.3,373.6,375.3,378.3,369.3,378.3z M351,335.8l2.2,31.7
		c0.4,5.3,4.7,9.3,10,9.3h6.2c5.3,0,9.6-4.1,10-9.3l2.2-31.7H351z"></path></g></svg>